<?xml version="1.0" encoding="UTF-8" standalone="no"?>
<!-- Created with Inkscape (http://www.inkscape.org/) -->
<svg
   xmlns:dc="http://purl.org/dc/elements/1.1/"
   xmlns:cc="http://creativecommons.org/ns#"
   xmlns:rdf="http://www.w3.org/1999/02/22-rdf-syntax-ns#"
   xmlns:svg="http://www.w3.org/2000/svg"
   xmlns="http://www.w3.org/2000/svg"
   xmlns:xlink="http://www.w3.org/1999/xlink"
   xmlns:sodipodi="http://sodipodi.sourceforge.net/DTD/sodipodi-0.dtd"
   xmlns:inkscape="http://www.inkscape.org/namespaces/inkscape"
   height="627.1485"
   id="svg2"
   inkscape:version="0.46"
   sodipodi:docbase="/home/sjbrown"
   sodipodi:docname="crazy_monkey_shandy_brow_01.svg"
   sodipodi:version="0.32"
   width="633.34143"
   inkscape:output_extension="org.inkscape.output.svg.inkscape"
   version="1.0">
  <metadata
     id="metadata2492">
    <rdf:RDF>
      <cc:Work
         rdf:about="">
        <dc:title>Crazy Monkey</dc:title>
        <dc:description>crazy monkey chimp primate with sharp teeth</dc:description>
        <dc:subject>
          <rdf:Bag>
            <rdf:li>mammal</rdf:li>
            <rdf:li>chimp</rdf:li>
            <rdf:li>monkey</rdf:li>
            <rdf:li>animal</rdf:li>
            <rdf:li>angry</rdf:li>
          </rdf:Bag>
        </dc:subject>
        <dc:publisher>
          <cc:Agent
             rdf:about="http://www.openclipart.org">
            <dc:title>Open Clip Art Library</dc:title>
          </cc:Agent>
        </dc:publisher>
        <dc:creator>
          <cc:Agent>
            <dc:title>Shandy Brown</dc:title>
          </cc:Agent>
        </dc:creator>
        <dc:rights>
          <cc:Agent>
            <dc:title>Shandy Brown</dc:title>
          </cc:Agent>
        </dc:rights>
        <dc:date />
        <dc:format>image/svg+xml</dc:format>
        <dc:type
           rdf:resource="http://purl.org/dc/dcmitype/StillImage" />
        <cc:license
           rdf:resource="http://web.resource.org/cc/PublicDomain" />
        <dc:language>en</dc:language>
      </cc:Work>
      <cc:License
         rdf:about="http://web.resource.org/cc/PublicDomain">
        <cc:permits
           rdf:resource="http://web.resource.org/cc/Reproduction" />
        <cc:permits
           rdf:resource="http://web.resource.org/cc/Distribution" />
        <cc:permits
           rdf:resource="http://web.resource.org/cc/DerivativeWorks" />
      </cc:License>
    </rdf:RDF>
  </metadata>
  <defs
     id="defs3">
    <inkscape:perspective
       sodipodi:type="inkscape:persp3d"
       inkscape:vp_x="0 : 343.75 : 1"
       inkscape:vp_y="0 : 1000 : 0"
       inkscape:vp_z="687.5 : 343.75 : 1"
       inkscape:persp3d-origin="343.75 : 229.16667 : 1"
       id="perspective2541" />
    <linearGradient
       id="linearGradient2128">
      <stop
         id="stop2130"
         offset="0.0000000"
         style="stop-color:#82551d;stop-opacity:1.0000000;" />
      <stop
         id="stop2132"
         offset="1"
         style="stop-color:#000000;stop-opacity:0;" />
    </linearGradient>
    <linearGradient
       gradientTransform="matrix(0.793783,0,0,1.25979,-220.0167,-343.261)"
       gradientUnits="userSpaceOnUse"
       id="linearGradient2134"
       inkscape:collect="always"
       x1="882.41162"
       x2="867.96619"
       xlink:href="#linearGradient2128"
       y1="581.52386"
       y2="540.38824" />
  </defs>
  <sodipodi:namedview
     bordercolor="#666666"
     borderopacity="1.0"
     id="base"
     inkscape:current-layer="layer1"
     inkscape:cx="284.85156"
     inkscape:cy="343.57467"
     inkscape:document-units="px"
     inkscape:guide-bbox="true"
     inkscape:pageopacity="0.0"
     inkscape:pageshadow="2"
     inkscape:window-height="772"
     inkscape:window-width="821"
     inkscape:window-x="324"
     inkscape:window-y="154"
     inkscape:zoom="0.94209239"
     pagecolor="#ffffff"
     showguides="true"
     showgrid="false" />
  <g
     id="layer1"
     inkscape:groupmode="layer"
     inkscape:label="Layer 1"
     transform="translate(-31.041842,-18.988446)">
    <path
       d="M 399.56502,880.30069 L 238.09244,786.20103 L 78.182724,882.93277 L 117.77905,700.28482 L -23.633124,578.0934 L 162.31134,559.31042 L 234.82352,387.06022 L 310.14719,558.09965 L 496.37436,573.8346 L 356.98249,698.32576 L 399.56502,880.30069 z"
       id="path2204"
       inkscape:flatsided="false"
       inkscape:randomized="0"
       inkscape:rounded="0"
       sodipodi:arg1="0.93428811"
       sodipodi:arg2="1.5626066"
       sodipodi:cx="237.0625"
       sodipodi:cy="660.44434"
       sodipodi:r1="273.39328"
       sodipodi:r2="125.76091"
       sodipodi:sides="5"
       sodipodi:type="star"
       style="fill:#ffe849;fill-opacity:1;stroke:#dcd800;stroke-width:6.26977158;stroke-linecap:round;stroke-linejoin:round;stroke-miterlimit:4;stroke-dashoffset:0;stroke-opacity:1"
       transform="matrix(1.203165,0,0,1.249236,63.31971,-460.6978)" />
    <path
       d="M 287.15045,416.40848 C 287.15045,416.40848 249.13214,407.80025 246.11842,392.73167 C 245.39136,401.10125 241.09556,423.57924 241.09556,423.57924 C 241.09556,423.57924 209.95384,383.69053 208.94927,373.64481 C 208.23053,387.32308 212.3959,426.44587 212.3959,425.01671"
       id="path2208"
       sodipodi:nodetypes="ccccc"
       style="fill:#ffffff;fill-opacity:1;fill-rule:evenodd;stroke:#000000;stroke-width:1px;stroke-linecap:butt;stroke-linejoin:miter;stroke-opacity:1" />
    <path
       d="M 330.82453,220.22233 C 334.42022,220.15765 338.01547,220.18763 341.60578,220.31608 C 370.32828,221.34364 398.41488,228.37043 418.29328,238.37858 C 428.23248,243.38266 436.11507,249.11441 441.01203,255.28483 C 445.86292,261.3972 447.74154,267.99194 445.63703,274.53483 C 467.7455,271.63706 486.28009,275.84009 500.73078,284.65983 C 522.99632,298.24924 535.72131,322.45853 537.85578,347.19108 C 539.99025,371.92363 531.5146,397.21695 511.29328,412.94108 C 497.90982,423.34808 479.29214,429.38836 455.38703,428.47233 C 455.75984,430.88282 457.48544,432.81436 460.66828,434.59733 C 464.24971,436.60359 469.51675,438.36494 476.04328,440.31608 C 489.09635,444.21835 507.2026,448.89488 527.29328,458.09733 L 527.63703,458.25358 L 527.57453,458.62858 L 525.57453,470.28483 L 525.48078,470.81608 L 524.94953,470.65983 L 415.38703,443.25358 C 415.77455,443.87129 416.05997,444.48981 416.07453,445.12858 C 416.09673,446.10264 415.65864,447.05897 414.91828,447.90983 C 413.43756,449.61156 410.68355,451.09479 407.01203,452.53483 C 399.66898,455.41491 388.60476,457.95459 376.66828,460.09733 C 352.82769,464.377 325.66317,467.0845 318.51203,467.59733 C 318.50232,467.59803 318.45916,467.59664 318.44953,467.59733 C 313.22502,468.63625 285.45412,472.65001 258.79328,469.37858 C 245.43652,467.73963 232.37829,464.29156 222.60578,457.62858 C 212.83327,450.9656 206.38703,441.04514 206.38703,426.75358 L 206.38703,426.25358 L 206.85578,426.25358 C 283.57092,423.73006 325.16733,409.35161 346.88703,394.03483 C 368.60673,378.71805 370.43635,362.44433 368.04328,356.22233 C 367.79557,355.57829 367.00659,354.8051 365.73078,354.00358 C 364.45497,353.20206 362.71198,352.36729 360.54328,351.53483 C 356.20589,349.86991 350.2366,348.16692 343.23078,346.44108 C 329.21913,342.98939 311.00891,339.41675 293.01203,335.69108 C 275.01515,331.96541 257.22732,328.10282 244.04328,324.00358 C 237.45126,321.95396 232.03403,319.84763 228.26203,317.65983 C 226.37603,316.56593 224.87819,315.45877 223.88703,314.28483 C 222.91983,313.13927 222.43342,311.89413 222.54328,310.62858 C 222.54372,310.60696 222.54283,310.58769 222.54328,310.56608 C 222.54436,310.55562 222.54212,310.54529 222.54328,310.53483 C 223.28689,275.4481 238.71152,252.31149 261.10578,238.28483 C 280.71885,226.00016 305.65473,220.67512 330.82453,220.22233 z"
       id="path2118"
       style="fill:#c48c4d;fill-opacity:1;stroke:none;stroke-width:2.79999995;stroke-linecap:butt;stroke-linejoin:round;stroke-miterlimit:4;stroke-dashoffset:0;stroke-opacity:1" />
    <path
       d="M 356.47809,353.0915 C 340.29925,344.34572 329.0198,345.66026 315.29065,343.65112 L 315.29065,364.14179 L 325.33637,353.0915 L 328.35008,376.19665 C 328.35008,376.19665 332.09086,353.0582 337.39123,349.07322 C 340.40494,353.0915 346.43237,366.15094 346.43237,366.15094 L 356.47809,353.0915 z"
       id="path2206"
       sodipodi:nodetypes="cccccccc"
       style="fill:#ffffff;fill-opacity:1;fill-rule:evenodd;stroke:none;stroke-width:1px;stroke-linecap:butt;stroke-linejoin:miter;stroke-opacity:1" />
    <path
       d="M 222.05887,311.89468 C 224.91601,171.89468 461.40264,223.89476 444.25978,275.32333"
       id="path2186"
       sodipodi:nodetypes="cc"
       style="fill:none;fill-opacity:0.75;fill-rule:evenodd;stroke:#000000;stroke-width:6.80000019;stroke-linecap:butt;stroke-linejoin:miter;stroke-miterlimit:4;stroke-opacity:1" />
    <path
       d="M 222.16472,311.35274 C 220.14441,329.53549 362.57593,343.67762 367.62669,356.8096 C 372.67745,369.94159 359.54547,422.46952 206.00228,427.52028 C 206.00228,484.08883 307.43938,469.88132 317.5409,467.86101 C 331.68304,466.85086 426.51079,457.06354 413.46312,443.40643"
       id="path2188"
       sodipodi:nodetypes="ccccc"
       style="fill:none;fill-opacity:0.75;fill-rule:evenodd;stroke:#000000;stroke-width:6.80000019;stroke-linecap:butt;stroke-linejoin:miter;stroke-miterlimit:4;stroke-opacity:1" />
    <path
       d="M 409.30441,442.20018 L 524.20033,470.95684 L 526.22064,459.32221 C 486.12967,440.95874 453.92591,440.67398 453.86686,428.34907"
       id="path2192"
       sodipodi:nodetypes="cccz"
       style="fill:none;fill-opacity:0.75;fill-rule:evenodd;stroke:#000000;stroke-width:6.80000019;stroke-linecap:butt;stroke-linejoin:miter;stroke-miterlimit:4;stroke-opacity:1" />
    <path
       d="M 330.85578,221.22233 C 305.81786,221.67555 281.03698,226.9774 261.63703,239.12858 C 239.47253,253.01134 224.26344,275.78812 223.54328,310.62858 C 223.54306,310.63938 223.5435,310.64902 223.54328,310.65983 C 223.44591,311.62405 223.8017,312.60219 224.66828,313.62858 C 225.54403,314.66583 226.9369,315.72624 228.76203,316.78483 C 232.41228,318.90201 237.80003,320.99649 244.35578,323.03483 C 257.46728,327.11151 275.24098,330.99813 293.23078,334.72233 C 311.22058,338.44653 329.42912,342.01079 343.48078,345.47233 C 350.50661,347.2031 356.47634,348.90428 360.88703,350.59733 C 363.09237,351.44386 364.92879,352.27134 366.29328,353.12858 C 367.65777,353.98582 368.59714,354.84987 368.98078,355.84733 C 371.63846,362.75731 369.41892,379.35446 347.44953,394.84733 C 325.53381,410.30235 283.88778,424.64348 207.41828,427.22233 C 207.56131,440.9493 213.71709,450.34093 223.16828,456.78483 C 232.7309,463.30471 245.65308,466.78212 258.91828,468.40983 C 285.44868,471.66525 313.36835,467.58857 318.32453,466.59733 L 318.35578,466.59733 L 318.38703,466.59733 C 325.42285,466.09478 352.66624,463.40358 376.48078,459.12858 C 388.38805,456.99108 399.45884,454.45626 406.66828,451.62858 C 410.273,450.21474 412.90527,448.7051 414.16828,447.25358 C 414.79978,446.52782 415.08981,445.83005 415.07453,445.15983 C 415.05925,444.48961 414.73887,443.76582 413.98078,442.97233 L 414.04328,442.90983 L 410.04328,441.90983 L 410.29328,440.94108 L 524.66828,469.56608 L 526.54328,458.84733 C 506.6857,449.79427 488.77027,445.1737 475.76203,441.28483 C 469.21887,439.32872 463.92575,437.5597 460.19953,435.47233 C 456.80154,433.56883 454.74857,431.29319 454.38703,428.40983 C 442.42746,427.85728 429.27164,425.72363 414.60578,421.28483 L 414.88703,420.31608 C 459.24693,433.74216 490.75039,427.64801 510.66828,412.15983 C 530.58617,396.67165 538.96575,371.73343 536.85578,347.28483 C 534.74581,322.83623 522.15886,298.9061 500.19953,285.50358 C 478.2402,272.10106 446.86759,269.15499 407.07453,286.78483 L 406.66828,285.87858 C 420.56658,279.7211 433.40694,276.19131 445.26203,274.59733 L 444.66828,274.40983 C 446.7526,268.15687 444.98995,261.90662 440.23078,255.90983 C 435.47161,249.91304 427.70973,244.21474 417.85578,239.25358 C 398.14787,229.33127 370.15759,222.33866 341.57453,221.31608 C 338.00165,221.18826 334.43263,221.15758 330.85578,221.22233 z"
       id="path2116"
       style="fill:#c48c4d;fill-opacity:1;stroke:none;stroke-width:2.79999995;stroke-linecap:butt;stroke-linejoin:round;stroke-miterlimit:4;stroke-dashoffset:0;stroke-opacity:1" />
    <path
       d="M 290.41808,237.54959 C 283.61517,237.34993 276.42965,239.78575 269.94933,245.51834 L 269.91808,245.48709 C 257.4032,257.7587 240.52253,281.9177 239.07433,321.70584 C 240.54451,322.21645 241.85882,322.73285 243.48058,323.23709 C 256.59211,327.31378 274.36578,331.20039 292.35558,334.92459 C 310.34541,338.6488 328.55392,342.21305 342.60558,345.67459 C 349.63144,347.40537 355.60114,349.10654 360.01183,350.79959 C 362.2172,351.64613 364.05359,352.4736 365.41808,353.33084 C 366.7826,354.18809 367.72194,355.05213 368.10558,356.04959 C 370.76329,362.95958 368.54372,379.55672 346.57433,395.04959 C 324.65864,410.50462 283.01258,424.84574 206.54308,427.42459 C 206.64759,437.45324 209.98589,445.13906 215.44933,451.08084 C 307.14463,448.35716 356.03363,429.29953 381.26183,409.29959 C 393.95908,399.2337 400.69542,388.93218 403.94933,380.36209 C 407.20324,371.792 406.94653,364.91108 405.76183,361.83084 L 405.79308,361.83084 C 403.61391,350.72647 394.87317,344.59166 386.48058,341.20584 C 377.91695,337.75102 369.82433,337.20584 369.82433,337.20584 L 369.66808,336.23709 C 370.9169,335.66978 373.2041,335.33304 376.26183,333.54959 C 379.31956,331.76614 383.09303,328.59483 386.98058,322.48709 C 391.07159,316.07971 392.74114,309.47459 391.88683,303.54959 C 391.02604,297.57967 387.63695,292.27449 381.54308,288.54959 C 369.35534,281.0998 346.23049,280.00995 311.23058,293.08084 L 309.91808,293.54959 L 310.60558,292.36209 C 322.13609,272.30902 318.34671,254.91753 308.54308,245.36209 C 303.64126,240.58437 297.22099,237.74925 290.41808,237.54959 z"
       id="path2182"
       style="fill:#dccf7d;fill-opacity:1;stroke:none;stroke-width:2.79999995;stroke-linecap:butt;stroke-linejoin:round;stroke-miterlimit:4;stroke-dashoffset:0;stroke-opacity:1" />
    <path
       d="M 406.01249,287.10908 C 565.61658,216.3984 591.71842,475.39294 413.86619,421.56375"
       id="path2190"
       sodipodi:nodetypes="cc"
       style="fill:none;fill-opacity:0.75;fill-rule:evenodd;stroke:#000000;stroke-width:3.70000005;stroke-linecap:butt;stroke-linejoin:miter;stroke-miterlimit:4;stroke-opacity:1" />
    <path
       d="M 268.57143,625.2193 A 28.571428,27.142857 0 1 1 211.42857,625.2193 A 28.571428,27.142857 0 1 1 268.57143,625.2193 z"
       id="path1293"
       sodipodi:cx="240"
       sodipodi:cy="625.2193"
       sodipodi:rx="28.571428"
       sodipodi:ry="27.142857"
       sodipodi:type="arc"
       style="fill:#000000;fill-opacity:1;fill-rule:evenodd;stroke:none;stroke-width:4.73296022;stroke-linecap:butt;stroke-linejoin:miter;stroke-miterlimit:4;stroke-opacity:1"
       transform="matrix(0.761293,0.293511,-0.480313,1.245807,382.6684,-544.2214)" />
    <path
       d="M 351.42857,626.64789 A 31.428572,31.428572 0 1 1 288.57143,626.64789 A 31.428572,31.428572 0 1 1 351.42857,626.64789 z"
       id="path1295"
       sodipodi:cx="320"
       sodipodi:cy="626.64789"
       sodipodi:rx="31.428572"
       sodipodi:ry="31.428572"
       sodipodi:type="arc"
       style="fill:#000000;fill-opacity:1;fill-rule:evenodd;stroke:none;stroke-width:1.47491515px;stroke-linecap:butt;stroke-linejoin:miter;marker:none;marker-start:none;marker-mid:none;marker-end:none;stroke-miterlimit:4;stroke-dashoffset:0;stroke-opacity:1;visibility:visible;display:inline;overflow:visible"
       transform="matrix(0.155223,0.327558,-1.169563,0.493427,1009.306,-86.28726)" />
    <path
       d="M 404.71683,356.06561 C 409.76759,369.1976 409.04272,446.2969 223.17464,451.34766"
       id="path1299"
       sodipodi:nodetypes="cc"
       style="fill:none;fill-opacity:0.75;fill-rule:evenodd;stroke:#000000;stroke-width:2.0999999;stroke-linecap:butt;stroke-linejoin:miter;stroke-miterlimit:4;stroke-opacity:1" />
    <path
       d="M 270.51511,244.92543 C 296.77907,221.69192 335.16486,251.9965 311.93136,292.4026 C 382.08336,266.20401 405.0615,296.57395 388.21574,322.70718"
       id="path1303"
       sodipodi:nodetypes="ccc"
       style="fill:none;fill-opacity:0.75;fill-rule:evenodd;stroke:#000000;stroke-width:4.30000019;stroke-linecap:butt;stroke-linejoin:miter;stroke-miterlimit:4;stroke-opacity:1" />
    <path
       d="M 442.24104,307.55489 C 499.81973,280.28077 528.104,400.48893 440.22073,394.42801 C 478.60653,379.27573 457.39333,350.99145 439.21058,365.13359"
       id="path1309"
       sodipodi:nodetypes="ccc"
       style="fill:none;fill-opacity:0.75;fill-rule:evenodd;stroke:#000000;stroke-width:1.60000002;stroke-linecap:butt;stroke-linejoin:miter;stroke-miterlimit:4;stroke-opacity:1" />
    <path
       d="M 119.198,635.67426 A 13.131983,12.626906 0 1 1 92.934034,635.67426 A 13.131983,12.626906 0 1 1 119.198,635.67426 z"
       id="path3587"
       sodipodi:cx="106.06602"
       sodipodi:cy="635.67426"
       sodipodi:rx="13.131983"
       sodipodi:ry="12.626906"
       sodipodi:type="arc"
       style="fill:#ab7f00;fill-opacity:1;fill-rule:evenodd;stroke:none;stroke-width:1px;stroke-linecap:butt;stroke-linejoin:miter;marker:none;marker-start:none;marker-mid:none;marker-end:none;stroke-miterlimit:4;stroke-dashoffset:0;stroke-opacity:1;visibility:visible;display:inline;overflow:visible"
       transform="translate(152.3273,-314.9874)" />
    <path
       d="M 119.198,635.67426 A 13.131983,12.626906 0 1 1 92.934034,635.67426 A 13.131983,12.626906 0 1 1 119.198,635.67426 z"
       id="path3589"
       sodipodi:cx="106.06602"
       sodipodi:cy="635.67426"
       sodipodi:rx="13.131983"
       sodipodi:ry="12.626906"
       sodipodi:type="arc"
       style="fill:#ab7f00;fill-opacity:1;fill-rule:evenodd;stroke:none;stroke-width:1px;stroke-linecap:butt;stroke-linejoin:miter;marker:none;marker-start:none;marker-mid:none;marker-end:none;stroke-miterlimit:4;stroke-dashoffset:0;stroke-opacity:1;visibility:visible;display:inline;overflow:visible"
       transform="matrix(0.576923,0,0,0.64,245.1633,-71.47717)" />
    <path
       d="M 119.198,635.67426 A 13.131983,12.626906 0 1 1 92.934034,635.67426 A 13.131983,12.626906 0 1 1 119.198,635.67426 z"
       id="path4353"
       sodipodi:cx="106.06602"
       sodipodi:cy="635.67426"
       sodipodi:rx="13.131983"
       sodipodi:ry="12.626906"
       sodipodi:type="arc"
       style="fill:#000000;fill-opacity:1;fill-rule:evenodd;stroke:none;stroke-width:1px;stroke-linecap:butt;stroke-linejoin:miter;marker:none;marker-start:none;marker-mid:none;marker-end:none;stroke-miterlimit:4;stroke-dashoffset:0;stroke-opacity:1;visibility:visible;display:inline;overflow:visible"
       transform="matrix(0.423077,0,0,0.4,213.5192,66.41716)" />
    <path
       d="M 119.198,635.67426 A 13.131983,12.626906 0 1 1 92.934034,635.67426 A 13.131983,12.626906 0 1 1 119.198,635.67426 z"
       id="path4355"
       sodipodi:cx="106.06602"
       sodipodi:cy="635.67426"
       sodipodi:rx="13.131983"
       sodipodi:ry="12.626906"
       sodipodi:type="arc"
       style="fill:#000000;fill-opacity:1;fill-rule:evenodd;stroke:none;stroke-width:1px;stroke-linecap:butt;stroke-linejoin:miter;marker:none;marker-start:none;marker-mid:none;marker-end:none;stroke-miterlimit:4;stroke-dashoffset:0;stroke-opacity:1;visibility:visible;display:inline;overflow:visible"
       transform="matrix(0.250106,0,0,0.250387,279.5791,176.2835)" />
    <path
       d="M 287.18627,417.06676 C 287.18627,417.06676 249.16796,408.45853 246.15424,393.38995 C 245.42718,401.75953 241.13138,424.23752 241.13138,424.23752 C 241.13138,424.23752 209.98966,384.34881 208.98509,374.30309 C 208.26635,387.98136 212.43172,427.10415 212.43172,425.67499"
       id="path4357"
       sodipodi:nodetypes="ccccc"
       style="fill:none;fill-opacity:0.75;fill-rule:evenodd;stroke:#000000;stroke-width:2.20000005;stroke-linecap:round;stroke-linejoin:round;stroke-miterlimit:4;stroke-opacity:1" />
    <path
       d="M 315.39498,343.81676 L 315.46968,362.23909 L 325.5154,351.1888 L 328.52911,374.29395 C 328.52911,374.29395 332.26989,351.1555 337.57026,347.17052 C 340.58397,351.1888 346.6114,364.24824 346.6114,364.24824 L 356.65712,351.1888"
       id="path4359"
       sodipodi:nodetypes="ccccccc"
       style="fill:none;fill-opacity:0.75;fill-rule:evenodd;stroke:#000000;stroke-width:2.20000005;stroke-linecap:butt;stroke-linejoin:miter;stroke-miterlimit:4;stroke-opacity:1" />
    <rect
       height="33.067455"
       id="rect4361"
       style="fill:#ffffff;fill-opacity:1;fill-rule:evenodd;stroke:none;stroke-width:1px;stroke-linecap:butt;stroke-linejoin:miter;marker:none;marker-start:none;marker-mid:none;marker-end:none;stroke-miterlimit:4;stroke-dashoffset:0;stroke-opacity:1;visibility:visible;display:inline;overflow:visible"
       width="23.61961"
       x="520.34698"
       y="443.07751" />
    <path
       d="M 439.40439,366.51801 C 438.92556,366.49701 442.52036,308.89881 442.43485,308.93931 C 500.01354,281.66519 528.29781,401.87335 440.41454,395.81243 C 478.80034,380.66015 457.58714,352.37587 439.40439,366.51801 z"
       id="path2126"
       sodipodi:nodetypes="cccc"
       style="fill:url(#linearGradient2134);fill-opacity:1;fill-rule:evenodd;stroke:none;stroke-width:1px;stroke-linecap:butt;stroke-linejoin:miter;stroke-opacity:1" />
  </g>
</svg>
